HIERARCHY
ROOT Hips
{
	OFFSET 55.527401 9.528331 57.937199
	CHANNELS 6 Xposition Yposition Zposition Xrotation Yrotation Zrotation
	JOINT spine
	{
		OFFSET 0.000000 -0.393701 6.846371
		CHANNELS 3 Xrotation Yrotation Zrotation
		JOINT spine1
		{
			OFFSET 0.000000 -0.000002 9.496208
			CHANNELS 3 Xrotation Yrotation Zrotation
			JOINT spine2
			{
				OFFSET 0.000000 -0.000001 9.099091
				CHANNELS 3 Xrotation Yrotation Zrotation
				JOINT Neck
				{
					OFFSET 0.000000 -1.113784 23.361198
					CHANNELS 3 Xrotation Yrotation Zrotation
					JOINT Head
					{
						OFFSET 0.000000 -0.000001 7.058022
						CHANNELS 3 Xrotation Yrotation Zrotation
						End Site
						{
							OFFSET 0.000000 5.634187 17.084404
						}
					}
				}
				JOINT RightShoulder
				{
					OFFSET -3.831360 0.533489 9.826309
					CHANNELS 3 Xrotation Yrotation Zrotation
					JOINT RightArm
					{
						OFFSET 0.000000 -0.000002 12.888100
						CHANNELS 3 Xrotation Yrotation Zrotation
						JOINT RightArmRoll
						{
							OFFSET 0.000000 -0.000001 6.506172
							CHANNELS 3 Xrotation Yrotation Zrotation
							JOINT RightForeArm
							{
								OFFSET 0.000000 -0.000003 18.950096
								CHANNELS 3 Xrotation Yrotation Zrotation
								JOINT RightForeArmRoll
								{
									OFFSET 0.000000 -0.000002 7.300934
									CHANNELS 3 Xrotation Yrotation Zrotation
									JOINT RightHand
									{
										OFFSET 0.000000 -0.000002 14.651398
										CHANNELS 3 Xrotation Yrotation Zrotation
										End Site
										{
											OFFSET 0.000000 0.000000 0.100006
										}
									}
								}
							}
						}
					}
				}
				JOINT LeftShoulder
				{
					OFFSET 3.831360 0.533489 9.826309
					CHANNELS 3 Xrotation Yrotation Zrotation
					JOINT LeftArm
					{
						OFFSET 0.000000 -0.000002 12.888100
						CHANNELS 3 Xrotation Yrotation Zrotation
						JOINT LeftArmRoll
						{
							OFFSET 0.000000 -0.000001 6.506172
							CHANNELS 3 Xrotation Yrotation Zrotation
							JOINT LeftForeArm
							{
								OFFSET 0.000000 -0.000003 18.950096
								CHANNELS 3 Xrotation Yrotation Zrotation
								JOINT LeftForeArmRoll
								{
									OFFSET 0.000000 -0.000002 7.300919
									CHANNELS 3 Xrotation Yrotation Zrotation
									JOINT LeftHand
									{
										OFFSET 0.000000 -0.000002 14.651398
										CHANNELS 3 Xrotation Yrotation Zrotation
										End Site
										{
											OFFSET 0.000000 0.000000 0.100006
										}
									}
								}
							}
						}
					}
				}
			}
		}
	}
	JOINT RightUpLeg
	{
		OFFSET -6.068371 0.933477 -1.112782
		CHANNELS 3 Xrotation Yrotation Zrotation
		JOINT RightUpLegRoll
		{
			OFFSET 0.000000 -0.000003 17.179596
			CHANNELS 3 Xrotation Yrotation Zrotation
			JOINT RightLeg
			{
				OFFSET 0.000000 0.000004 -21.274300
				CHANNELS 3 Xrotation Yrotation Zrotation
				JOINT RightLegRoll
				{
					OFFSET 0.000000 -0.000004 21.343903
					CHANNELS 3 Xrotation Yrotation Zrotation
					JOINT RightFoot
					{
						OFFSET 0.000000 -0.000003 17.765198
						CHANNELS 3 Xrotation Yrotation Zrotation
						JOINT RightToeBase
						{
							OFFSET 0.000000 -0.000002 14.850800
							CHANNELS 3 Xrotation Yrotation Zrotation
							End Site
							{
								OFFSET 0.006294 0.829003 7.192146
							}
						}
					}
				}
			}
		}
	}
	JOINT LeftUpLeg
	{
		OFFSET 6.068371 0.933477 -1.112782
		CHANNELS 3 Xrotation Yrotation Zrotation
		JOINT LeftUpLegRoll
		{
			OFFSET 0.000000 -0.000003 17.179703
			CHANNELS 3 Xrotation Yrotation Zrotation
			JOINT LeftLeg
			{
				OFFSET 0.000000 -0.000003 21.274200
				CHANNELS 3 Xrotation Yrotation Zrotation
				JOINT LeftLegRoll
				{
					OFFSET 0.000000 -0.000004 21.541199
					CHANNELS 3 Xrotation Yrotation Zrotation
					JOINT LeftFoot
					{
						OFFSET 0.000000 -0.000003 17.567902
						CHANNELS 3 Xrotation Yrotation Zrotation
						JOINT LeftToeBase
						{
							OFFSET 0.000000 -0.000002 14.850800
							CHANNELS 3 Xrotation Yrotation Zrotation
							End Site
							{
								OFFSET -0.028210 0.829003 7.192123
							}
						}
					}
				}
			}
		}
	}
}
MOTION
Frames: 6
Frame Time: 0.041667
55.332100 6.238442 59.675201 20.432028 2.178798 -2.072444 2.119945 -0.645841 0.622995 8.250091 -1.257247 1.271969 9.895181 -1.241932 1.286675 52.984117 14.406633 -5.233401 0.567914 -8.811365 -0.410885 0.205717 -33.980826 3.961171 -47.263540 -130.111320 -88.400406 -0.000002 0.000000 -0.000005 53.770097 -13.425369 7.236800 -0.000002 0.000012 -2.999999 -5.000210 -7.998762 0.000176 -5.355708 41.881077 4.581466 -54.636684 141.795478 92.025140 -0.000001 0.000014 0.000009 34.089399 34.043920 -14.051173 -0.000003 0.000003 2.999989 -5.000245 7.998733 -0.000157 -98.587811 -177.269733 2.004367 -179.999991 0.000005 -0.782994 109.928377 -2.374359 -4.304806 -0.000003 -0.000004 1.499720 67.157746 7.191043 1.514362 25.456957 -7.355616 0.000000 -101.371987 164.663403 -0.224305 -0.000004 -0.000004 -0.458138 -75.717319 1.384227 4.563996 0.000000 0.000000 -1.626791 68.433605 -7.155371 -1.492497 25.456953 7.355612 0.000002 
55.346298 6.272142 59.670601 20.286393 2.163158 -2.068190 2.127164 -0.646522 0.622488 8.264533 -1.259388 1.270923 9.909627 -1.244074 1.285632 52.918721 14.400720 -5.218037 0.555882 -8.779221 -0.409781 0.230187 -34.086988 3.975381 -47.445243 -130.118095 -88.464398 -0.000003 -0.000001 -0.000002 53.691318 -13.452373 7.236286 -0.000001 0.000013 -3.000001 -5.000207 -7.998761 0.000178 -5.343020 42.045193 4.583358 -54.792338 141.818851 91.927181 -0.000001 0.000015 0.000004 33.772704 34.026029 -13.913269 -0.000001 0.000003 2.999986 -5.000246 7.998733 -0.000156 -98.478166 -177.275019 1.981688 -179.999991 0.000005 -0.784005 109.923412 -2.353428 -4.288593 -0.000002 -0.000004 1.499470 67.164412 7.190472 1.514210 25.456957 -7.355616 0.000000 -101.240199 164.683265 -0.219298 -0.000004 -0.000005 -0.460198 -75.706028 1.371042 4.551101 0.000000 0.000001 -1.626540 68.432239 -7.155069 -1.493927 25.456959 7.355614 0.000001 
55.341904 6.301640 59.662304 20.142062 2.147632 -2.063926 2.133927 -0.647076 0.621983 8.278073 -1.261265 1.269940 9.923163 -1.245973 1.284647 52.855166 14.391801 -5.201759 0.543202 -8.745500 -0.408602 0.254668 -34.194837 3.989328 -47.623962 -130.123764 -88.530617 -0.000001 -0.000000 -0.000006 53.614946 -13.480833 7.237052 0.000000 0.000014 -2.999998 -5.000209 -7.998761 0.000178 -5.327546 42.202042 4.580793 -54.940098 141.842375 91.819510 -0.000002 0.000015 0.000004 33.461821 34.008495 -13.777090 -0.000002 0.000004 2.999989 -5.000243 7.998731 -0.000154 -98.368207 -177.280961 1.960053 -179.999991 0.000005 -0.785002 109.919949 -2.332333 -4.272372 -0.000002 -0.000004 1.499180 67.170348 7.189906 1.514107 25.456960 -7.355616 0.000000 -101.109872 164.702225 -0.213874 -0.000004 -0.000005 -0.462230 -75.695776 1.358015 4.538422 0.000000 0.000000 -1.626289 68.430962 -7.154701 -1.495539 25.456955 7.355614 -0.000001 
55.349304 6.323681 59.648201 19.999139 2.132314 -2.059585 2.140115 -0.647490 0.621459 8.290478 -1.262848 1.268979 9.935569 -1.247561 1.283694 52.794060 14.379409 -5.184614 0.529717 -8.710165 -0.407321 0.279482 -34.304581 4.003404 -47.799908 -130.127193 -88.601289 -0.000000 -0.000000 -0.000003 53.541590 -13.510971 7.239511 -0.000001 0.000012 -2.999998 -5.000209 -7.998764 0.000176 -5.308403 42.349379 4.572396 -55.079076 141.864368 91.701778 -0.000001 0.000016 0.000007 33.158410 33.991369 -13.643091 0.000001 0.000001 2.999987 -5.000242 7.998732 -0.000155 -98.257920 -177.287778 1.937965 -179.999991 0.000005 -0.786997 109.918023 -2.311765 -4.256027 -0.000001 -0.000004 1.498870 67.175211 7.189353 1.514177 25.456957 -7.355614 -0.000000 -100.981642 164.720257 -0.209420 -0.000004 -0.000004 -0.464227 -75.686931 1.345000 4.525884 -0.000000 0.000001 -1.626050 68.429780 -7.154306 -1.497140 25.456959 7.355613 0.000000 
55.353703 6.354080 59.648705 19.857732 2.117279 -2.055078 2.145638 -0.647753 0.620894 8.301548 -1.264099 1.268021 9.946638 -1.248829 1.282734 52.735897 14.363121 -5.166327 0.515247 -8.673194 -0.405918 0.304931 -34.416913 4.017974 -47.971205 -130.128559 -88.675820 -0.000003 -0.000000 -0.000003 53.471840 -13.542949 7.243979 -0.000002 0.000014 -3.000000 -5.000211 -7.998762 0.000178 -5.284738 42.485112 4.556820 -55.206028 141.885541 91.569860 -0.000001 0.000015 0.000009 32.863804 33.974918 -13.511570 -0.000002 0.000005 2.999985 -5.000241 7.998734 -0.000155 -98.147558 -177.295646 1.916161 -179.999991 0.000005 -0.787994 109.917756 -2.291391 -4.240610 -0.000001 -0.000004 1.498530 67.178858 7.188869 1.514440 25.456959 -7.355616 0.000000 -100.856124 164.737428 -0.204162 -0.000004 -0.000004 -0.466183 -75.680299 1.331833 4.513409 -0.000000 0.000001 -1.625850 68.428790 -7.153846 -1.498815 25.456955 7.355612 0.000002 
55.339500 6.379759 59.650505 19.717926 2.102632 -2.050330 2.150358 -0.647854 0.620269 8.311043 -1.264989 1.267035 9.956138 -1.249738 1.281747 52.681212 14.342509 -5.146925 0.499620 -8.634578 -0.404358 0.331355 -34.531951 4.033445 -48.138173 -130.126783 -88.756409 -0.000004 -0.000001 -0.000003 53.405949 -13.576892 7.250545 0.000002 0.000013 -2.999999 -5.000212 -7.998761 0.000176 -5.255714 42.607202 4.532743 -55.318891 141.905349 91.421310 -0.000001 0.000015 0.000005 32.579241 33.959161 -13.382659 -0.000004 0.000003 2.999992 -5.000249 7.998731 -0.000157 -98.037107 -177.304771 1.895022 -179.999991 0.000005 -0.789005 109.919307 -2.270868 -4.224184 -0.000001 -0.000004 1.498180 67.181030 7.188398 1.514902 25.456959 -7.355616 0.000000 -100.734061 164.753629 -0.198205 -0.000004 -0.000004 -0.468091 -75.676372 1.318356 4.500912 0.000000 0.000001 -1.625709 68.427881 -7.153320 -1.500477 25.456957 7.355614 0.000002 
